<?xml version="1.0" encoding="utf-8"?>
<!-- Generator: Adobe Illustrator 16.0.0, SVG Export Plug-In . SVG Version: 6.00 Build 0)  -->
<!DOCTYPE svg PUBLIC "-//W3C//DTD SVG 1.1//EN" "http://www.w3.org/Graphics/SVG/1.1/DTD/svg11.dtd">
<svg version="1.1" id="Layer_1" xmlns="http://www.w3.org/2000/svg" xmlns:xlink="http://www.w3.org/1999/xlink" x="0px" y="0px"
	 width="600px" height="600px" viewBox="0 0 600 600" enable-background="new 0 0 600 600" xml:space="preserve">
<g>
	<defs>
		<rect id="SVGID_1_" width="600" height="600"/>
	</defs>
	<clipPath id="SVGID_2_">
		<use xlink:href="#SVGID_1_"  overflow="visible"/>
	</clipPath>
	<g clip-path="url(#SVGID_2_)">
		<defs>
			<rect id="SVGID_3_" width="600" height="600"/>
		</defs>
		<clipPath id="SVGID_4_">
			<use xlink:href="#SVGID_3_"  overflow="visible"/>
		</clipPath>
		<path clip-path="url(#SVGID_4_)" fill="#FFFFFF" d="M296.953,434.944c-1.46,0-2.912-0.381-4.19-1.121l-13.338-7.892
			c-1.991-1.114-1.019-1.509-0.362-1.738c2.657-0.922,3.195-1.135,6.031-2.743c0.295-0.167,0.687-0.103,0.992,0.076l10.247,6.083
			c0.371,0.206,0.895,0.206,1.237,0l39.95-23.058c0.372-0.212,0.609-0.641,0.609-1.081v-46.104c0-0.451-0.237-0.872-0.62-1.101
			l-39.933-23.038c-0.369-0.216-0.859-0.216-1.231,0l-39.923,23.045c-0.388,0.222-0.634,0.657-0.634,1.094v46.104
			c0,0.44,0.246,0.858,0.63,1.067l10.944,6.323c5.938,2.969,9.574-0.528,9.574-4.041v-45.519c0-0.645,0.517-1.151,1.161-1.151h5.065
			c0.634,0,1.158,0.507,1.158,1.151v45.519c0,7.925-4.316,12.47-11.829,12.47c-2.309,0-4.127,0-9.202-2.501l-10.476-6.03
			c-2.588-1.496-4.19-4.293-4.19-7.288v-46.104c0-2.995,1.602-5.792,4.19-7.281L292.763,327c2.528-1.429,5.888-1.429,8.396,0
			l39.947,23.085c2.587,1.496,4.195,4.286,4.195,7.281v46.104c0,2.995-1.608,5.781-4.195,7.288l-39.947,23.064
			C299.882,434.563,298.433,434.944,296.953,434.944"/>
		<path clip-path="url(#SVGID_4_)" fill="#FFFFFF" d="M309.293,403.182c-17.481,0-21.144-8.024-21.144-14.755
			c0-0.641,0.514-1.151,1.154-1.151h5.165c0.577,0,1.058,0.415,1.148,0.979c0.78,5.258,3.105,7.912,13.677,7.912
			c8.416,0,11.999-1.904,11.999-6.369c0-2.574-1.016-4.485-14.095-5.767c-10.931-1.081-17.692-3.496-17.692-12.239
			c0-8.062,6.794-12.868,18.186-12.868c12.798,0,19.131,4.441,19.933,13.972c0.03,0.329-0.086,0.645-0.305,0.889
			c-0.219,0.229-0.524,0.369-0.846,0.369h-5.186c-0.537,0-1.012-0.382-1.121-0.902c-1.243-5.533-4.269-7.302-12.476-7.302
			c-9.189,0-10.257,3.201-10.257,5.601c0,2.906,1.26,3.751,13.667,5.393c12.276,1.623,18.108,3.921,18.108,12.55
			C329.21,398.195,321.952,403.182,309.293,403.182"/>
		<path clip-path="url(#SVGID_4_)" fill="#FFFFFF" d="M366.898,354.831c0,4.236-3.464,7.699-7.698,7.699
			c-4.197,0-7.7-3.422-7.7-7.699c0-4.359,3.586-7.701,7.7-7.701C363.355,347.13,366.898,350.472,366.898,354.831 M352.744,354.81
			c0,3.586,2.893,6.479,6.436,6.479c3.586,0,6.479-2.954,6.479-6.479c0-3.585-2.933-6.437-6.479-6.437
			C355.677,348.373,352.744,351.184,352.744,354.81 M356.307,350.511h2.976c1.019,0,3.016,0,3.016,2.283
			c0,1.589-1.019,1.914-1.632,2.118c1.184,0.081,1.264,0.856,1.426,1.955c0.083,0.692,0.206,1.875,0.448,2.281h-1.831
			c-0.043-0.406-0.329-2.607-0.329-2.729c-0.119-0.49-0.285-0.732-0.896-0.732h-1.506v3.461h-1.672V350.511z M357.938,354.3h1.344
			c1.098,0,1.304-0.772,1.304-1.221c0-1.183-0.816-1.183-1.264-1.183h-1.384V354.3z"/>
		<path clip-path="url(#SVGID_4_)" fill-rule="evenodd" clip-rule="evenodd" fill="#FFFFFF" d="M173.243,254.567
			c0-1.841-0.969-3.533-2.558-4.445l-42.355-24.375c-0.716-0.422-1.519-0.641-2.331-0.674h-0.438
			c-0.81,0.033-1.612,0.252-2.339,0.674l-42.355,24.375c-1.579,0.912-2.561,2.604-2.561,4.445l0.093,65.635
			c0,0.913,0.474,1.762,1.277,2.21c0.786,0.471,1.758,0.471,2.541,0l25.172-14.414c1.592-0.945,2.561-2.614,2.561-4.438v-30.665
			c0-1.828,0.968-3.52,2.554-4.429l10.718-6.173c0.799-0.461,1.672-0.687,2.564-0.687c0.873,0,1.768,0.226,2.544,0.687l10.715,6.173
			c1.586,0.909,2.558,2.601,2.558,4.429v30.665c0,1.824,0.982,3.504,2.564,4.438l25.165,14.414c0.789,0.471,1.775,0.471,2.557,0
			c0.78-0.448,1.271-1.297,1.271-2.21L173.243,254.567z"/>
		<path clip-path="url(#SVGID_4_)" fill-rule="evenodd" clip-rule="evenodd" fill="#FFFFFF" d="M377.04,164.34
			c-0.793-0.44-1.76-0.431-2.543,0.029c-0.78,0.459-1.262,1.299-1.262,2.206v65c0,0.639-0.342,1.231-0.894,1.551
			c-0.555,0.32-1.237,0.32-1.791,0l-10.609-6.112c-1.582-0.913-3.529-0.911-5.112,0.001l-42.371,24.453
			c-1.584,0.914-2.559,2.603-2.559,4.431v48.917c0,1.828,0.975,3.516,2.557,4.432l42.37,24.471c1.584,0.914,3.534,0.914,5.118,0
			l42.377-24.471c1.582-0.916,2.558-2.604,2.558-4.432V182.879c0-1.854-1.004-3.564-2.624-4.468L377.04,164.34z M373.109,288.743
			c0,0.456-0.244,0.879-0.64,1.106l-14.549,8.386c-0.395,0.227-0.882,0.227-1.276,0l-14.548-8.386
			c-0.397-0.227-0.641-0.65-0.641-1.106v-16.799c0-0.456,0.243-0.879,0.64-1.108l14.547-8.402c0.396-0.229,0.884-0.229,1.28,0
			l14.548,8.402c0.395,0.229,0.639,0.652,0.639,1.108V288.743z"/>
		<path clip-path="url(#SVGID_4_)" fill-rule="evenodd" clip-rule="evenodd" fill="#FFFFFF" d="M518.131,271.505
			c1.576-0.915,2.546-2.601,2.546-4.424v-11.854c0-1.823-0.97-3.51-2.548-4.425l-42.099-24.443
			c-1.584-0.921-3.539-0.922-5.127-0.007l-42.356,24.453c-1.583,0.914-2.558,2.602-2.558,4.43v48.903
			c0,1.841,0.986,3.537,2.584,4.446l42.093,23.985c1.552,0.886,3.455,0.896,5.017,0.027l25.46-14.15
			c0.809-0.45,1.312-1.297,1.316-2.22c0.006-0.923-0.485-1.776-1.284-2.235l-42.625-24.465c-0.796-0.456-1.286-1.304-1.286-2.219
			v-15.326c0-0.914,0.488-1.76,1.281-2.216l13.266-7.648c0.789-0.456,1.765-0.456,2.555,0l13.271,7.648
			c0.793,0.456,1.28,1.302,1.28,2.216v12.058c0,0.916,0.49,1.762,1.283,2.218c0.793,0.458,1.77,0.454,2.561-0.005L518.131,271.505z"
			/>
		<path clip-path="url(#SVGID_4_)" fill-rule="evenodd" clip-rule="evenodd" fill="#FFFFFF" d="M472.842,269.214
			c0.305-0.176,0.679-0.176,0.982,0l8.13,4.69c0.304,0.176,0.491,0.5,0.491,0.851v9.388c0,0.352-0.188,0.675-0.491,0.851
			l-8.13,4.691c-0.304,0.176-0.678,0.176-0.982,0l-8.124-4.691c-0.304-0.176-0.49-0.499-0.49-0.851v-9.388
			c0-0.351,0.187-0.675,0.49-0.851L472.842,269.214z"/>
	</g>
	<g clip-path="url(#SVGID_2_)">
		<defs>
			<path id="SVGID_5_" d="M238.756,226.869l-42.02,24.254c-1.572,0.906-2.539,2.582-2.539,4.395v48.548
				c0,1.813,0.967,3.488,2.537,4.396l42.02,24.274c1.571,0.906,3.507,0.906,5.079,0l42.029-24.274
				c1.571-0.908,2.538-2.583,2.538-4.396V255.52c0-1.815-0.967-3.491-2.539-4.397l-42.03-24.254c-0.785-0.454-1.661-0.68-2.538-0.68
				C240.417,226.189,239.54,226.415,238.756,226.869"/>
		</defs>
		<clipPath id="SVGID_6_">
			<use xlink:href="#SVGID_5_"  overflow="visible"/>
		</clipPath>
		
			<linearGradient id="SVGID_7_" gradientUnits="userSpaceOnUse" x1="4.882813e-004" y1="599.999" x2="1.0005" y2="599.999" gradientTransform="matrix(94.2039 0 0 -94.2039 194.1875 56802.1445)">
			<stop  offset="0" style="stop-color:#FFFFFF"/>
			<stop  offset="0.0053" style="stop-color:#FFFFFF"/>
			<stop  offset="0.1054" style="stop-color:#F4F4F5"/>
			<stop  offset="0.4925" style="stop-color:#CFD0D1"/>
			<stop  offset="0.8043" style="stop-color:#B7B9BB"/>
			<stop  offset="1" style="stop-color:#AFB1B3"/>
		</linearGradient>
		<rect x="194.197" y="226.189" clip-path="url(#SVGID_6_)" fill="url(#SVGID_7_)" width="94.203" height="107.456"/>
	</g>
	<g clip-path="url(#SVGID_2_)">
		<defs>
			<path id="SVGID_8_" d="M238.766,226.869l-42.03,24.254c-1.572,0.906-2.539,2.582-2.539,4.397v48.546
				c0,1.813,0.967,3.488,2.537,4.396l42.031,24.274c1.571,0.906,3.506,0.906,5.077,0l42.02-24.274
				c1.571-0.908,2.538-2.583,2.538-4.396v-48.548c0-1.813-0.967-3.489-2.538-4.395l-42.021-24.254
				c-0.785-0.454-1.661-0.68-2.538-0.68C240.427,226.189,239.551,226.415,238.766,226.869"/>
		</defs>
		<clipPath id="SVGID_9_">
			<use xlink:href="#SVGID_8_"  overflow="visible"/>
		</clipPath>
		<g opacity="0.66" clip-path="url(#SVGID_9_)">
			<g>
				<defs>
					<rect id="SVGID_10_" x="195.182" y="226.341" width="91.752" height="107.069"/>
				</defs>
				<clipPath id="SVGID_11_">
					<use xlink:href="#SVGID_10_"  overflow="visible"/>
				</clipPath>
				<path clip-path="url(#SVGID_11_)" fill="#4B4B4B" d="M285.648,251.123l-41.843-24.255c-0.419-0.242-0.867-0.414-1.327-0.527
					l-47.296,80.908c0.398,0.479,0.878,0.896,1.428,1.214l42.093,24.274c1.255,0.724,2.707,0.859,4.043,0.428l44.188-80.914
					C286.588,251.809,286.166,251.421,285.648,251.123"/>
			</g>
		</g>
	</g>
	<g clip-path="url(#SVGID_2_)">
		<defs>
			<path id="SVGID_12_" d="M240.99,226.198c-0.771,0.048-1.533,0.272-2.224,0.671l-41.629,24.022l45.223,82.385
				c0.473-0.112,0.935-0.286,1.373-0.539l41.93-24.274c1.569-0.908,2.337-2.583,2.337-4.396v-0.19l-45.36-77.493
				c-0.455-0.127-0.924-0.191-1.392-0.191C241.162,226.192,241.076,226.194,240.99,226.198"/>
		</defs>
		<clipPath id="SVGID_13_">
			<use xlink:href="#SVGID_12_"  overflow="visible"/>
		</clipPath>
		
			<linearGradient id="SVGID_14_" gradientUnits="userSpaceOnUse" x1="0" y1="600" x2="1" y2="600" gradientTransform="matrix(97.1778 0 0 -97.1778 193.5625 58586.4258)">
			<stop  offset="0" style="stop-color:#AFB1B3"/>
			<stop  offset="0.1957" style="stop-color:#B7B9BB"/>
			<stop  offset="0.5075" style="stop-color:#CFD0D1"/>
			<stop  offset="0.8946" style="stop-color:#F4F4F5"/>
			<stop  offset="0.9947" style="stop-color:#FFFFFF"/>
			<stop  offset="1" style="stop-color:#FFFFFF"/>
		</linearGradient>
		<rect x="197.137" y="226.192" clip-path="url(#SVGID_13_)" fill="url(#SVGID_14_)" width="90.863" height="107.084"/>
	</g>
</g>
</svg>
