<svg xmlns="http://www.w3.org/2000/svg" xmlns:xlink="http://www.w3.org/1999/xlink" viewBox="0 0 489 516.67"><defs><style>.cls-1{fill:url(#linear-gradient);}.cls-2{opacity:0.17;}.cls-3{fill:#fff;}</style><linearGradient id="linear-gradient" x1="36.61" y1="258.33" x2="451.19" y2="258.33" gradientUnits="userSpaceOnUse"><stop offset="0" stop-color="#0093ca"/><stop offset="0.01" stop-color="#0193ca"/><stop offset="0.47" stop-color="#61b2ca"/><stop offset="0.71" stop-color="#38a5ca"/><stop offset="1" stop-color="#0093ca"/></linearGradient></defs><title>R f</title><g id="Layer_2" data-name="Layer 2"><g id="Layer_3" data-name="Layer 3"><polygon class="cls-1" points="0 89.64 244.5 0 489 89.64 450.44 402.31 244.5 516.67 38.55 402.31 0 89.64"/><polygon class="cls-2" points="489 89.64 244.5 0 244.5 516.67 450.44 402.31 489 89.64"/><path class="cls-3" d="M303,417,210.33,283.92V417H146.14V67.26h76.8a251.61,251.61,0,0,1,32.9,2.1,148.31,148.31,0,0,1,29.75,7A106.43,106.43,0,0,1,310.81,89a79,79,0,0,1,19.56,19.24A87.32,87.32,0,0,1,343,134.93q4.45,15.28,4.45,35a109.5,109.5,0,0,1-5.25,34.92,92.65,92.65,0,0,1-14.71,27.81,91.06,91.06,0,0,1-22.8,20.7,111.85,111.85,0,0,1-29.51,13.26L380.58,417ZM282.44,169.29q0-13.1-4.69-21.1A32.45,32.45,0,0,0,265.3,135.9a50.77,50.77,0,0,0-17.78-5.66,152.55,152.55,0,0,0-20.7-1.37H211v81.49h18.59a97.12,97.12,0,0,0,19.4-1.94,50.31,50.31,0,0,0,17-6.63,35.38,35.38,0,0,0,12-12.61Q282.43,181.25,282.44,169.29Z"/></g></g></svg>