<svg xmlns="http://www.w3.org/2000/svg" viewBox="0 0 489 516.67"><defs><style>.cls-1{fill:#fff;}.cls-2{opacity:0.11;}</style></defs><title>R w</title><g id="Layer_2" data-name="Layer 2"><g id="Layer_1-2" data-name="Layer 1"><path class="cls-1" d="M282,167.78q0-13.17-4.72-21.22a32.65,32.65,0,0,0-12.52-12.36,51.09,51.09,0,0,0-17.89-5.69A153.43,153.43,0,0,0,226,127.12H210.09v82h18.7a97.68,97.68,0,0,0,19.52-2,50.6,50.6,0,0,0,17.08-6.67,35.59,35.59,0,0,0,12-12.69Q282,179.81,282,167.78Z"/><path class="cls-1" d="M244.5,0,0,89.64,38.55,402.3,244.5,516.67,450.45,402.3,489,89.64Zm58.12,416.93L209.44,283.08V416.93H144.87V65.15h77.25a253.08,253.08,0,0,1,33.1,2.11,149.22,149.22,0,0,1,29.92,7A107.09,107.09,0,0,1,310.51,87a79.49,79.49,0,0,1,19.68,19.35,87.85,87.85,0,0,1,12.69,26.83q4.47,15.37,4.47,35.21a110.17,110.17,0,0,1-5.29,35.13,93.2,93.2,0,0,1-14.8,28,91.6,91.6,0,0,1-22.93,20.82,112.5,112.5,0,0,1-29.68,13.34l106,151.25Z"/><g class="cls-2"><path d="M248.92,207.39a50.84,50.84,0,0,0,17.16-6.7,35.77,35.77,0,0,0,12.09-12.75q4.57-8,4.58-20.1,0-13.24-4.74-21.32a32.8,32.8,0,0,0-12.58-12.42,51.31,51.31,0,0,0-18-5.72c-1-.13-2-.24-2.95-.35v80.15C246,207.94,247.45,207.68,248.92,207.39Z"/><path d="M244.5,0V66.39q5.75.48,11.36,1.22a149.92,149.92,0,0,1,30.07,7,107.57,107.57,0,0,1,25.49,12.83c7.68,5.29,14.27,12.77,19.77,20.45s8.75,15.67,11.75,26,4.49,22.09,4.49,35.38c0,13-2.77,24.73-6.31,35.3a93.63,93.63,0,0,1-14.87,28.11c-6.37,8.17-13.3,13.9-23.25,20.16a107.53,107.53,0,0,1-28.61,12.83L380.17,417l-77.33-.33-58.33-84v184L450.45,402.3,489,89.64Z"/></g></g></g></svg>